<?xml version="1.0" encoding="UTF-8" standalone="no"?>
<svg width="100px" height="100px" viewBox="0 0 100 100" version="1.1" xmlns="http://www.w3.org/2000/svg" xmlns:xlink="http://www.w3.org/1999/xlink">
	<g stroke="none" stroke-width="1" fill="none" fill-rule="evenodd">
		<path d="M120,108 C120,114.6 114.6,120 108,120 L12,120 C5.4,120 0,114.6 0,108 L0,12 C0,5.4 5.4,0 12,0 L108,0 C114.6,0 120,5.4 120,12 L120,108 L120,108 Z" id="Shape" fill="#F26891"/>
		<path fill="#fff" d="m39 41c-3.9 0-7 3.1-7 7s3.1 7 7 7 7-3.1 7-7-3.1-7-7-7z m40 22h-19v-8h2c1.1 0 2-0.9 2-2v-6c0-1.1-0.9-2-2-2h-2.3c-1.6-10-10-17.8-20.4-18-11.8-0.2-21.5 9.5-21.3 21.3 0.2 11.6 9.9 20.7 21.5 20.7h36.5v2c0 1.1 0.9 2 2 2h2c1.1 0 2-0.9 2-2v-5c0-1.7-1.3-3-3-3z m-40-2c-7.2 0-13-5.8-13-13s5.8-13 13-13 13 5.8 13 13-5.8 13-13 13z"></path>
	</g>
</svg>